# xmcd
#
# Track frame offsets:
#	150
#	16164
#	31366
#	46253
#	62338
#	76146
#	91223
#	106742
#	122076
#	134865
#	170266
#	183017
#	198382
#	212894
#	229305
# Disc length: 3347 seconds
# Revision: 1
# Processed by: cddbd v1.5.2PL0 Copyright (c) Steve Scherf et al.
#
# Submitted via: libkcddb 0.31
#
DISCID=be0d110f
DTITLE=Glenn Miller - Glenn Miller
DYEAR=2007
DGENRE=Blues
TTITLE0=In the Mood
TTITLE1=Moonlight Serenade
TTITLE2=American Patrol
TTITLE3=St. Louis Blues March
TTITLE4=Juke Box Saturday Night
TTITLE5=Perfidia
TTITLE6=Tuxedo Junction
TTITLE7=Stardust
TTITLE8=Everybody Loves My Baby
TTITLE9=Chattanooga Choo-Choo
TTITLE10=Little Brown Jug
TTITLE11=Sunrise Serenade
TTITLE12=Flying Home
TTITLE13=Here We Go Again
TTITLE14=I Dream, I Dwelt In Harlem
EXTD=
EXTT0=
EXTT1=
EXTT2=
EXTT3=
EXTT4=
EXTT5=
EXTT6=
EXTT7=
EXTT8=
EXTT9=
EXTT10=
EXTT11=
EXTT12=
EXTT13=
EXTT14=
PLAYORDER=
